#tb 0: 1/12
#media_type 0: video
#codec_id 0: rawvideo
#dimensions 0: 160x60
#sar 0: 0/1
0,          0,          0,        1,    19200, 0x846cec68
0,          1,          1,        1,    19200, 0x6488e22e
0,          2,          2,        1,    19200, 0x70983aec
0,          3,          3,        1,    19200, 0xe926f3d5
0,          4,          4,        1,    19200, 0x17eebacf
0,          5,          5,        1,    19200, 0xed442455
0,          6,          6,        1,    19200, 0x27b522dd
0,          7,          7,        1,    19200, 0x8cd115bf
0,          8,          8,        1,    19200, 0xe7511ff6
0,          9,          9,        1,    19200, 0xfdbc43e9
